<mxfile host="app.diagrams.net" modified="2024-07-13T11:15:18.105Z" agent="Mozilla/5.0 (Windows NT 10.0; Win64; x64) AppleWebKit/537.36 (KHTML, like Gecko) Chrome/126.0.0.0 Safari/537.36" etag="jPdxUpoD08YmN0Cu7H9T" version="24.6.5" type="device">
  <diagram name="Sayfa -1" id="f-UkEvjaMF4P7MFyI879">
    <mxGraphModel dx="1434" dy="780" grid="1" gridSize="10" guides="1" tooltips="1" connect="1" arrows="1" fold="1" page="1" pageScale="1" pageWidth="1169" pageHeight="827" math="0" shadow="0">
      <root>
        <mxCell id="0" />
        <mxCell id="1" parent="0" />
        <mxCell id="xRxFfYptyTol-ESDVMN0-1" style="edgeStyle=orthogonalEdgeStyle;rounded=0;orthogonalLoop=1;jettySize=auto;html=1;exitX=0.5;exitY=1;exitDx=0;exitDy=0;entryX=0.5;entryY=0;entryDx=0;entryDy=0;" edge="1" parent="1" source="xRxFfYptyTol-ESDVMN0-2" target="xRxFfYptyTol-ESDVMN0-4">
          <mxGeometry relative="1" as="geometry">
            <mxPoint x="400" y="290" as="targetPoint" />
          </mxGeometry>
        </mxCell>
        <mxCell id="xRxFfYptyTol-ESDVMN0-2" value="Start" style="ellipse;whiteSpace=wrap;html=1;" vertex="1" parent="1">
          <mxGeometry x="340" width="120" height="80" as="geometry" />
        </mxCell>
        <mxCell id="xRxFfYptyTol-ESDVMN0-3" style="edgeStyle=orthogonalEdgeStyle;rounded=0;orthogonalLoop=1;jettySize=auto;html=1;exitX=0.5;exitY=1;exitDx=0;exitDy=0;entryX=0.5;entryY=0;entryDx=0;entryDy=0;" edge="1" parent="1" source="xRxFfYptyTol-ESDVMN0-4" target="xRxFfYptyTol-ESDVMN0-18">
          <mxGeometry relative="1" as="geometry" />
        </mxCell>
        <mxCell id="xRxFfYptyTol-ESDVMN0-4" value="Robot Started to Recording" style="rounded=0;whiteSpace=wrap;html=1;" vertex="1" parent="1">
          <mxGeometry x="340" y="120" width="120" height="60" as="geometry" />
        </mxCell>
        <mxCell id="xRxFfYptyTol-ESDVMN0-7" value="" style="edgeStyle=orthogonalEdgeStyle;rounded=0;orthogonalLoop=1;jettySize=auto;html=1;" edge="1" parent="1" source="xRxFfYptyTol-ESDVMN0-8" target="xRxFfYptyTol-ESDVMN0-12">
          <mxGeometry relative="1" as="geometry" />
        </mxCell>
        <mxCell id="xRxFfYptyTol-ESDVMN0-8" value="Checking the Faces from selected social medias" style="whiteSpace=wrap;html=1;rounded=0;" vertex="1" parent="1">
          <mxGeometry x="80" y="490" width="160" height="60" as="geometry" />
        </mxCell>
        <mxCell id="xRxFfYptyTol-ESDVMN0-9" style="edgeStyle=orthogonalEdgeStyle;rounded=0;orthogonalLoop=1;jettySize=auto;html=1;exitX=0.5;exitY=1;exitDx=0;exitDy=0;entryX=0.5;entryY=0;entryDx=0;entryDy=0;" edge="1" parent="1" source="xRxFfYptyTol-ESDVMN0-10" target="xRxFfYptyTol-ESDVMN0-16">
          <mxGeometry relative="1" as="geometry">
            <mxPoint x="400" y="585" as="targetPoint" />
          </mxGeometry>
        </mxCell>
        <mxCell id="xRxFfYptyTol-ESDVMN0-10" value="Social Media Searching Algorithm working" style="rounded=0;whiteSpace=wrap;html=1;" vertex="1" parent="1">
          <mxGeometry x="80" y="320" width="160" height="60" as="geometry" />
        </mxCell>
        <mxCell id="xRxFfYptyTol-ESDVMN0-11" value="" style="edgeStyle=orthogonalEdgeStyle;rounded=0;orthogonalLoop=1;jettySize=auto;html=1;" edge="1" parent="1" source="xRxFfYptyTol-ESDVMN0-12" target="xRxFfYptyTol-ESDVMN0-42">
          <mxGeometry relative="1" as="geometry">
            <mxPoint x="160" y="650" as="targetPoint" />
          </mxGeometry>
        </mxCell>
        <mxCell id="xRxFfYptyTol-ESDVMN0-12" value="Comparing face pictures from robot and social media" style="whiteSpace=wrap;html=1;rounded=0;" vertex="1" parent="1">
          <mxGeometry x="80" y="567.5" width="160" height="60" as="geometry" />
        </mxCell>
        <mxCell id="xRxFfYptyTol-ESDVMN0-13" value="" style="edgeStyle=orthogonalEdgeStyle;rounded=0;orthogonalLoop=1;jettySize=auto;html=1;" edge="1" parent="1" target="xRxFfYptyTol-ESDVMN0-49">
          <mxGeometry relative="1" as="geometry">
            <mxPoint x="160" y="710" as="sourcePoint" />
            <mxPoint x="40" y="790" as="targetPoint" />
          </mxGeometry>
        </mxCell>
        <mxCell id="xRxFfYptyTol-ESDVMN0-45" value="Yes" style="edgeLabel;html=1;align=center;verticalAlign=middle;resizable=0;points=[];" vertex="1" connectable="0" parent="xRxFfYptyTol-ESDVMN0-13">
          <mxGeometry x="0.1469" y="2" relative="1" as="geometry">
            <mxPoint as="offset" />
          </mxGeometry>
        </mxCell>
        <mxCell id="xRxFfYptyTol-ESDVMN0-15" style="edgeStyle=orthogonalEdgeStyle;rounded=0;orthogonalLoop=1;jettySize=auto;html=1;exitX=0.5;exitY=1;exitDx=0;exitDy=0;entryX=0.5;entryY=0;entryDx=0;entryDy=0;" edge="1" parent="1" source="xRxFfYptyTol-ESDVMN0-16" target="xRxFfYptyTol-ESDVMN0-8">
          <mxGeometry relative="1" as="geometry" />
        </mxCell>
        <mxCell id="xRxFfYptyTol-ESDVMN0-16" value="Selected Social Medias" style="shape=parallelogram;perimeter=parallelogramPerimeter;whiteSpace=wrap;html=1;fixedSize=1;" vertex="1" parent="1">
          <mxGeometry x="85" y="410" width="150" height="60" as="geometry" />
        </mxCell>
        <mxCell id="xRxFfYptyTol-ESDVMN0-41" style="edgeStyle=orthogonalEdgeStyle;rounded=0;orthogonalLoop=1;jettySize=auto;html=1;exitX=0.5;exitY=1;exitDx=0;exitDy=0;entryX=0.5;entryY=0;entryDx=0;entryDy=0;" edge="1" parent="1" source="xRxFfYptyTol-ESDVMN0-18" target="xRxFfYptyTol-ESDVMN0-10">
          <mxGeometry relative="1" as="geometry" />
        </mxCell>
        <mxCell id="xRxFfYptyTol-ESDVMN0-18" value="Face Pictures and Images" style="shape=parallelogram;perimeter=parallelogramPerimeter;whiteSpace=wrap;html=1;fixedSize=1;" vertex="1" parent="1">
          <mxGeometry x="100" y="220" width="120" height="60" as="geometry" />
        </mxCell>
        <mxCell id="xRxFfYptyTol-ESDVMN0-51" style="edgeStyle=orthogonalEdgeStyle;rounded=0;orthogonalLoop=1;jettySize=auto;html=1;exitX=1;exitY=0.5;exitDx=0;exitDy=0;entryX=0.5;entryY=1;entryDx=0;entryDy=0;" edge="1" parent="1" source="xRxFfYptyTol-ESDVMN0-20" target="xRxFfYptyTol-ESDVMN0-22">
          <mxGeometry relative="1" as="geometry">
            <Array as="points">
              <mxPoint x="520" y="790" />
              <mxPoint x="520" y="265" />
            </Array>
          </mxGeometry>
        </mxCell>
        <mxCell id="xRxFfYptyTol-ESDVMN0-20" value="Identifical Information about person" style="shape=parallelogram;perimeter=parallelogramPerimeter;whiteSpace=wrap;html=1;fixedSize=1;rounded=0;" vertex="1" parent="1">
          <mxGeometry x="240" y="760" width="262.5" height="60" as="geometry" />
        </mxCell>
        <mxCell id="xRxFfYptyTol-ESDVMN0-21" value="" style="edgeStyle=orthogonalEdgeStyle;rounded=0;orthogonalLoop=1;jettySize=auto;html=1;" edge="1" parent="1" source="xRxFfYptyTol-ESDVMN0-22" target="xRxFfYptyTol-ESDVMN0-27">
          <mxGeometry relative="1" as="geometry" />
        </mxCell>
        <mxCell id="xRxFfYptyTol-ESDVMN0-22" value="Fetch past conversation data with using information" style="rounded=0;whiteSpace=wrap;html=1;" vertex="1" parent="1">
          <mxGeometry x="460" y="205" width="120" height="60" as="geometry" />
        </mxCell>
        <mxCell id="xRxFfYptyTol-ESDVMN0-23" value="" style="edgeStyle=orthogonalEdgeStyle;rounded=0;orthogonalLoop=1;jettySize=auto;html=1;" edge="1" parent="1" source="xRxFfYptyTol-ESDVMN0-27" target="xRxFfYptyTol-ESDVMN0-29">
          <mxGeometry relative="1" as="geometry" />
        </mxCell>
        <mxCell id="xRxFfYptyTol-ESDVMN0-24" value="Conversation" style="edgeLabel;html=1;align=center;verticalAlign=middle;resizable=0;points=[];" vertex="1" connectable="0" parent="xRxFfYptyTol-ESDVMN0-23">
          <mxGeometry x="0.0784" y="2" relative="1" as="geometry">
            <mxPoint as="offset" />
          </mxGeometry>
        </mxCell>
        <mxCell id="xRxFfYptyTol-ESDVMN0-25" value="" style="edgeStyle=orthogonalEdgeStyle;rounded=0;orthogonalLoop=1;jettySize=auto;html=1;" edge="1" parent="1" source="xRxFfYptyTol-ESDVMN0-27" target="xRxFfYptyTol-ESDVMN0-33">
          <mxGeometry relative="1" as="geometry" />
        </mxCell>
        <mxCell id="xRxFfYptyTol-ESDVMN0-26" value="Question" style="edgeLabel;html=1;align=center;verticalAlign=middle;resizable=0;points=[];" vertex="1" connectable="0" parent="xRxFfYptyTol-ESDVMN0-25">
          <mxGeometry x="0.0651" relative="1" as="geometry">
            <mxPoint x="1" y="1" as="offset" />
          </mxGeometry>
        </mxCell>
        <mxCell id="xRxFfYptyTol-ESDVMN0-27" value="&lt;font style=&quot;font-size: 9px;&quot;&gt;Customer wants to make conversation or ask question&lt;/font&gt;" style="rhombus;whiteSpace=wrap;html=1;rounded=0;" vertex="1" parent="1">
          <mxGeometry x="840" y="180" width="240" height="110" as="geometry" />
        </mxCell>
        <mxCell id="xRxFfYptyTol-ESDVMN0-28" value="" style="edgeStyle=orthogonalEdgeStyle;rounded=0;orthogonalLoop=1;jettySize=auto;html=1;" edge="1" parent="1" source="xRxFfYptyTol-ESDVMN0-29" target="xRxFfYptyTol-ESDVMN0-39">
          <mxGeometry relative="1" as="geometry" />
        </mxCell>
        <mxCell id="xRxFfYptyTol-ESDVMN0-29" value="By using older conversation history, making conversation" style="whiteSpace=wrap;html=1;rounded=0;" vertex="1" parent="1">
          <mxGeometry x="740" y="385" width="120" height="60" as="geometry" />
        </mxCell>
        <mxCell id="xRxFfYptyTol-ESDVMN0-30" style="edgeStyle=orthogonalEdgeStyle;rounded=0;orthogonalLoop=1;jettySize=auto;html=1;exitX=0.5;exitY=1;exitDx=0;exitDy=0;entryX=1;entryY=0.5;entryDx=0;entryDy=0;" edge="1" parent="1" source="xRxFfYptyTol-ESDVMN0-33" target="xRxFfYptyTol-ESDVMN0-39">
          <mxGeometry relative="1" as="geometry" />
        </mxCell>
        <mxCell id="xRxFfYptyTol-ESDVMN0-31" style="edgeStyle=orthogonalEdgeStyle;rounded=0;orthogonalLoop=1;jettySize=auto;html=1;exitX=1;exitY=0.5;exitDx=0;exitDy=0;entryX=1;entryY=0.5;entryDx=0;entryDy=0;" edge="1" parent="1" source="xRxFfYptyTol-ESDVMN0-33" target="xRxFfYptyTol-ESDVMN0-27">
          <mxGeometry relative="1" as="geometry" />
        </mxCell>
        <mxCell id="xRxFfYptyTol-ESDVMN0-32" value="No" style="edgeLabel;html=1;align=center;verticalAlign=middle;resizable=0;points=[];" vertex="1" connectable="0" parent="xRxFfYptyTol-ESDVMN0-31">
          <mxGeometry x="-0.2643" y="4" relative="1" as="geometry">
            <mxPoint as="offset" />
          </mxGeometry>
        </mxCell>
        <mxCell id="xRxFfYptyTol-ESDVMN0-33" value="Answering question" style="whiteSpace=wrap;html=1;rounded=0;" vertex="1" parent="1">
          <mxGeometry x="1020" y="385" width="120" height="60" as="geometry" />
        </mxCell>
        <mxCell id="xRxFfYptyTol-ESDVMN0-34" value="Finish" style="ellipse;whiteSpace=wrap;html=1;" vertex="1" parent="1">
          <mxGeometry x="735" y="710" width="130" height="80" as="geometry" />
        </mxCell>
        <mxCell id="xRxFfYptyTol-ESDVMN0-35" style="edgeStyle=orthogonalEdgeStyle;rounded=0;orthogonalLoop=1;jettySize=auto;html=1;entryX=0.5;entryY=0;entryDx=0;entryDy=0;startArrow=none;startFill=0;exitX=0;exitY=0.5;exitDx=0;exitDy=0;" edge="1" parent="1" source="xRxFfYptyTol-ESDVMN0-39" target="xRxFfYptyTol-ESDVMN0-27">
          <mxGeometry relative="1" as="geometry">
            <mxPoint x="710" y="598" as="sourcePoint" />
            <Array as="points">
              <mxPoint x="660" y="598" />
              <mxPoint x="660" y="160" />
              <mxPoint x="960" y="160" />
            </Array>
          </mxGeometry>
        </mxCell>
        <mxCell id="xRxFfYptyTol-ESDVMN0-36" value="Yes" style="edgeLabel;html=1;align=center;verticalAlign=middle;resizable=0;points=[];" vertex="1" connectable="0" parent="xRxFfYptyTol-ESDVMN0-35">
          <mxGeometry x="-0.9153" y="1" relative="1" as="geometry">
            <mxPoint x="1" as="offset" />
          </mxGeometry>
        </mxCell>
        <mxCell id="xRxFfYptyTol-ESDVMN0-37" style="edgeStyle=orthogonalEdgeStyle;rounded=0;orthogonalLoop=1;jettySize=auto;html=1;exitX=0.5;exitY=1;exitDx=0;exitDy=0;entryX=0.5;entryY=0;entryDx=0;entryDy=0;" edge="1" parent="1" source="xRxFfYptyTol-ESDVMN0-39" target="xRxFfYptyTol-ESDVMN0-34">
          <mxGeometry relative="1" as="geometry" />
        </mxCell>
        <mxCell id="xRxFfYptyTol-ESDVMN0-38" value="No" style="edgeLabel;html=1;align=center;verticalAlign=middle;resizable=0;points=[];" vertex="1" connectable="0" parent="xRxFfYptyTol-ESDVMN0-37">
          <mxGeometry x="-0.7" y="1" relative="1" as="geometry">
            <mxPoint as="offset" />
          </mxGeometry>
        </mxCell>
        <mxCell id="xRxFfYptyTol-ESDVMN0-39" value="If customer wants to continue using robot" style="rhombus;whiteSpace=wrap;html=1;rounded=0;" vertex="1" parent="1">
          <mxGeometry x="717.5" y="525" width="165" height="145" as="geometry" />
        </mxCell>
        <mxCell id="xRxFfYptyTol-ESDVMN0-43" style="edgeStyle=orthogonalEdgeStyle;rounded=0;orthogonalLoop=1;jettySize=auto;html=1;exitX=1;exitY=0.5;exitDx=0;exitDy=0;entryX=1;entryY=0.5;entryDx=0;entryDy=0;" edge="1" parent="1" source="xRxFfYptyTol-ESDVMN0-42" target="xRxFfYptyTol-ESDVMN0-8">
          <mxGeometry relative="1" as="geometry" />
        </mxCell>
        <mxCell id="xRxFfYptyTol-ESDVMN0-44" value="No" style="edgeLabel;html=1;align=center;verticalAlign=middle;resizable=0;points=[];" vertex="1" connectable="0" parent="xRxFfYptyTol-ESDVMN0-43">
          <mxGeometry x="-0.1926" y="-2" relative="1" as="geometry">
            <mxPoint as="offset" />
          </mxGeometry>
        </mxCell>
        <mxCell id="xRxFfYptyTol-ESDVMN0-42" value="Are the pictures matched?" style="rhombus;whiteSpace=wrap;html=1;" vertex="1" parent="1">
          <mxGeometry x="20" y="650" width="280" height="80" as="geometry" />
        </mxCell>
        <mxCell id="xRxFfYptyTol-ESDVMN0-46" value="We need to write an algorithm that can search and select suitable social media platforms&amp;nbsp;by applying specific parameters to searching filters for greater results." style="text;html=1;align=center;verticalAlign=middle;whiteSpace=wrap;rounded=0;" vertex="1" parent="1">
          <mxGeometry x="291.25" y="220" width="148.75" height="115" as="geometry" />
        </mxCell>
        <mxCell id="xRxFfYptyTol-ESDVMN0-48" value="" style="endArrow=none;dashed=1;html=1;rounded=0;exitX=1;exitY=0.5;exitDx=0;exitDy=0;entryX=0;entryY=0.75;entryDx=0;entryDy=0;" edge="1" parent="1" source="xRxFfYptyTol-ESDVMN0-10" target="xRxFfYptyTol-ESDVMN0-46">
          <mxGeometry width="50" height="50" relative="1" as="geometry">
            <mxPoint x="250" y="350" as="sourcePoint" />
            <mxPoint x="291" y="335" as="targetPoint" />
          </mxGeometry>
        </mxCell>
        <mxCell id="xRxFfYptyTol-ESDVMN0-50" style="edgeStyle=orthogonalEdgeStyle;rounded=0;orthogonalLoop=1;jettySize=auto;html=1;entryX=0;entryY=0.5;entryDx=0;entryDy=0;" edge="1" parent="1" source="xRxFfYptyTol-ESDVMN0-49" target="xRxFfYptyTol-ESDVMN0-20">
          <mxGeometry relative="1" as="geometry" />
        </mxCell>
        <mxCell id="xRxFfYptyTol-ESDVMN0-49" value="Gathering Information from matched picture&#39;s owner (name, surname and location)" style="rounded=0;whiteSpace=wrap;html=1;" vertex="1" parent="1">
          <mxGeometry y="760" width="190" height="60" as="geometry" />
        </mxCell>
      </root>
    </mxGraphModel>
  </diagram>
</mxfile>
